<svg width="50" height="45" viewBox="0 0 50 45" fill="none" xmlns="http://www.w3.org/2000/svg">
<path d="M23.9729 28L9.29385 18.2778V15.5H16.9335C18.8616 15.5 20.526 15.1007 21.9266 14.3021C23.3272 13.5035 24.173 12.5139 24.4641 11.3333H7.11108V8.55556H23.8092C23.1908 7.74537 22.2722 7.07986 21.0535 6.55903C19.8348 6.03819 18.4615 5.77778 16.9335 5.77778H7.11108V3H33.3043V5.77778H26.2103C26.7196 6.1713 27.1743 6.59954 27.5745 7.0625C27.9747 7.52546 28.2839 8.02315 28.5022 8.55556H33.3043V11.3333H28.8842C28.5931 13.3009 27.3198 14.9502 25.0643 16.2813C22.8088 17.6123 20.0985 18.2778 16.9335 18.2778H15.351L30.0301 28H23.9729Z" fill="#888585"/>
</svg>
